<svg xmlns="http://www.w3.org/2000/svg" viewBox="0 0 100 100">
    <svg xmlns="http://www.w3.org/2000/svg" viewBox="0 0 24 24" fill="none">

        <defs>
            <defs>

                <linearGradient id="orangeGradient" x1="0%" y1="0%" x2="100%" y2="100%">
                    <linearGradient id="grad" x1="0%" y1="0%" x2="100%" y2="100%">

                        <stop offset="0%" style="stop-color:#ff8c00;stop-opacity:1" />
                        <stop offset="0%" style="stop-color:#22c55e;stop-opacity:1" />

                        <stop offset="100%" style="stop-color:#ff6600;stop-opacity:1" />
                        <stop offset="100%" style="stop-color:#16a34a;stop-opacity:1" />

                    </linearGradient>
                </linearGradient>

                <filter id="shadow"></defs>

                <feDropShadow dx="0" dy="2" stdDeviation="3" flood-opacity="0.3"/>
                <rect x="3" y="4" width="18" height="18" rx="2" stroke="url(#grad)" stroke-width="2" fill="none"/>

            </filter>
            <line x1="16" y1="2" x2="16" y2="6" stroke="url(#grad)" stroke-width="2" stroke-linecap="round"/>

        </defs>
        <line x1="8" y1="2" x2="8" y2="6" stroke="url(#grad)" stroke-width="2" stroke-linecap="round"/>

        <line x1="3" y1="10" x2="21" y2="10" stroke="url(#grad)" stroke-width="2" stroke-linecap="round"/>

        <!-- Background circle -->
        <circle cx="12" cy="15" r="1.5" fill="url(#grad)"/>

        <circle cx="50" cy="50" r="48" fill="#ffffff"/>
        <circle cx="8" cy="15" r="1" fill="url(#grad)"/>

        <circle cx="16" cy="15" r="1" fill="url(#grad)"/>

        <!-- Star shape -->
        <circle cx="12" cy="19" r="1" fill="url(#grad)"/>

        <path d="M 50 20 </svg>

           L 58.5 41.5 
           L 81.5 41.5 
           L 62.5 55 
           L 71 76.5 
           L 50 63 
           L 29 76.5 
           L 37.5 55 
           L 18.5 41.5 
           L 41.5 41.5 
           Z" fill="url(#orangeGradient)" stroke="#ff5500" stroke-width="2" filter="url(#shadow)"/>
    </svg>
